<svg xmlns="http://www.w3.org/2000/svg" width="50" height="50" viewBox="0 0 50 50">
  <defs>
    <style>
      .cls-1 {
        fill: #ffffff;
        fill-rule: evenodd;
      }
    </style>
  </defs>
  <path id="_" data-name="" class="cls-1" d="M18.577,6.749A18.257,18.257,0,0,0,7.093,10.421q-4.766,3.673-4.766,8.828A10.309,10.309,0,0,0,5.3,26.437a12.96,12.96,0,0,1-2.812,4.219,0.678,0.678,0,0,0-.078.7,0.752,0.752,0,0,0,.234.273,0.516,0.516,0,0,0,.313.117A13.654,13.654,0,0,0,9.905,29.8a19.427,19.427,0,0,0,8.672,1.953,18.254,18.254,0,0,0,11.484-3.672q4.764-3.671,4.766-8.828t-4.766-8.828A18.262,18.262,0,0,0,18.577,6.749Zm28.75,22.5a10.291,10.291,0,0,0-2.812-6.992,15.885,15.885,0,0,0-7.266-4.57,14.439,14.439,0,0,1,.078,1.563q0,6.173-5.508,10.586a20.512,20.512,0,0,1-13.242,4.414,22.7,22.7,0,0,1-2.5-.156,13.676,13.676,0,0,0,5.938,5.547,19.365,19.365,0,0,0,9.063,2.109A19.444,19.444,0,0,0,39.749,39.8,13.659,13.659,0,0,0,46.7,41.749a0.555,0.555,0,0,0,.547-0.391,0.68,0.68,0,0,0-.078-0.7,12.971,12.971,0,0,1-2.812-4.219,10.314,10.314,0,0,0,2.969-7.188h0Z"/>
</svg>
