<svg xmlns="http://www.w3.org/2000/svg" width="50" height="50" viewBox="0 0 50 50">
  <defs>
    <style>
      .cls-1 {
        fill: #313133;
        fill-rule: evenodd;
      }
    </style>
  </defs>
  <path id="_" data-name="ïµ" class="cls-1" d="M4.827,25A14.069,14.069,0,0,0,9.28,35.233a15.753,15.753,0,0,1-1.562,3.633A22.41,22.41,0,0,1,5.96,41.6q-0.665.82-.937,1.094a0.565,0.565,0,0,0-.117.664,0.762,0.762,0,0,0,.234.273,0.516,0.516,0,0,0,.313.117,17.486,17.486,0,0,0,11.016-3.984,23.736,23.736,0,0,0,8.359,1.484,21.7,21.7,0,0,0,14.141-4.766Q44.827,31.719,44.827,25T38.968,13.515A21.7,21.7,0,0,0,24.827,8.749a21.7,21.7,0,0,0-14.141,4.766Q4.827,18.281,4.827,25h0Z"/>
</svg>
