<svg xmlns="http://www.w3.org/2000/svg" width="50" height="50" viewBox="0 0 50 50">
  <defs>
    <style>
      .cls-1 {
        fill: #313133;
        fill-rule: evenodd;
      }
    </style>
  </defs>
  <path id="_" data-name="" class="cls-1" d="M39.515,28.983a16.068,16.068,0,0,0,0-5.469L42.8,21.562a0.807,0.807,0,0,0,.469-1.094,19.419,19.419,0,0,0-4.3-7.344A0.916,0.916,0,0,0,37.8,12.89l-3.281,1.953a14.977,14.977,0,0,0-4.766-2.734V8.28a0.85,0.85,0,0,0-.7-0.937,19.929,19.929,0,0,0-8.594,0,0.85,0.85,0,0,0-.7.938v3.828a14.964,14.964,0,0,0-4.766,2.734L11.7,12.968a0.848,0.848,0,0,0-1.172.156,19.387,19.387,0,0,0-4.3,7.344A0.807,0.807,0,0,0,6.7,21.562l3.281,1.953a16.068,16.068,0,0,0,0,5.469L6.7,30.937a0.842,0.842,0,0,0-.469,1.094,19.368,19.368,0,0,0,4.3,7.344,0.913,0.913,0,0,0,1.172.234l3.281-1.953a14.941,14.941,0,0,0,4.766,2.734v3.828a0.87,0.87,0,0,0,.781.938,19.571,19.571,0,0,0,8.516,0,0.85,0.85,0,0,0,.7-0.937V40.39a14.954,14.954,0,0,0,4.766-2.734l3.359,1.953a0.825,0.825,0,0,0,1.094-.234,19.4,19.4,0,0,0,4.3-7.344,0.808,0.808,0,0,0-.469-1.094ZM18.5,26.249A6.269,6.269,0,0,1,24.749,20,6.268,6.268,0,0,1,31,26.249a6.268,6.268,0,0,1-6.25,6.25A6.268,6.268,0,0,1,18.5,26.249Z"/>
</svg>
