<svg xmlns="http://www.w3.org/2000/svg" width="50" height="50" viewBox="0 0 50 50">
  <defs>
    <style>
      .cls-1 {
        fill: #ffffff;
        fill-rule: evenodd;
      }
    </style>
  </defs>
  <path id="_" data-name="" class="cls-1" d="M42.492,39.031a7.234,7.234,0,0,0,2.188-5.312v-15a7.469,7.469,0,0,0-7.5-7.5H30.617a0.829,0.829,0,0,0-.937.937v3.125a0.829,0.829,0,0,0,.938.938H37.18a2.535,2.535,0,0,1,2.5,2.5v15a2.535,2.535,0,0,1-2.5,2.5H30.617a0.829,0.829,0,0,0-.937.937v3.125a0.829,0.829,0,0,0,.938.938H37.18A7.233,7.233,0,0,0,42.492,39.031ZM20.383,12.391A1.74,1.74,0,0,0,18.352,12a1.713,1.713,0,0,0-1.172,1.719v7.5H6.555A1.867,1.867,0,0,0,4.68,23.094v7.5a1.867,1.867,0,0,0,1.875,1.875H17.18v7.5a1.712,1.712,0,0,0,1.172,1.719,1.74,1.74,0,0,0,2.031-.391L33.508,28.172a1.886,1.886,0,0,0,0-2.656Z"/>
</svg>
