<svg xmlns="http://www.w3.org/2000/svg" width="50" height="50" viewBox="0 0 50 50">
  <defs>
    <style>
      .cls-1 {
        fill: #ffffff;
        fill-rule: evenodd;
      }
    </style>
  </defs>
  <path id="_" data-name="" class="cls-1" d="M6.633,25.438a3.508,3.508,0,0,0-1.875,3.516,3.444,3.444,0,0,0,2.344,3.2l8.906,3.75v6.563a3.568,3.568,0,0,0,1.25,2.812,3.636,3.636,0,0,0,2.852.938,3.889,3.889,0,0,0,2.7-1.484l3.359-4.609,8.75,3.594a4.662,4.662,0,0,0,1.484.234,3.7,3.7,0,0,0,1.8-.469,3.584,3.584,0,0,0,1.875-2.656l4.688-30.312a3.494,3.494,0,0,0-1.641-3.633,3.637,3.637,0,0,0-3.984-.2ZM19.758,37.391l2.891,1.172-2.891,3.906V37.391Zm4.609-2.109L35.3,19.5a1.284,1.284,0,0,0-1.875-1.719L16.945,32.234,8.508,28.719l32.5-18.75L36.4,40.2Z"/>
</svg>
