<svg xmlns="http://www.w3.org/2000/svg" width="50" height="50" viewBox="0 0 50 50">
  <defs>
    <style>
      .cls-1 {
        fill: #b1b5bf;
        fill-rule: evenodd;
      }
    </style>
  </defs>
  <path id="_" data-name="" class="cls-1" d="M34.749,15.249a9.635,9.635,0,0,0-2.93-7.07,9.635,9.635,0,0,0-7.07-2.93,9.633,9.633,0,0,0-7.07,2.93,9.635,9.635,0,0,0-2.93,7.07,9.633,9.633,0,0,0,2.93,7.07,9.633,9.633,0,0,0,7.07,2.93,9.635,9.635,0,0,0,7.07-2.93A9.633,9.633,0,0,0,34.749,15.249Zm-4.3,12.5a13.635,13.635,0,0,1-11.406,0H17.718a10.074,10.074,0,0,0-7.383,3.086,10.073,10.073,0,0,0-3.086,7.383V41.5A3.734,3.734,0,0,0,11,45.249H38.5a3.734,3.734,0,0,0,3.75-3.75V38.218A10.537,10.537,0,0,0,31.78,27.749H30.452Z"/>
</svg>
